<svg width="300" height="300" viewBox="0 0 300 300" fill="none" xmlns="http://www.w3.org/2000/svg">
<path d="M94.3838 49.3922C102.013 47.9861 110.138 50.4172 115.886 55.7818C118.701 58.4096 121.635 62.4553 124.461 67.151C127.333 71.9234 130.267 77.6558 133.021 83.8863C138.518 96.3176 143.438 111.035 145.723 124.47C147.485 134.834 148.728 146.433 149.477 157.796C150.228 146.574 151.464 135.139 153.203 124.908C155.487 111.472 160.408 96.7558 165.904 84.3248C168.659 78.0943 171.592 72.3619 174.465 67.5894C177.291 62.8941 180.224 58.8481 183.039 56.2203H183.04C188.788 50.8556 196.912 48.4247 204.542 49.8307C212.397 51.2784 219.385 56.733 222.589 66.2896C228.307 83.3497 227.455 111.216 219.606 141.172C214.186 161.862 206.029 180.396 197.63 195.243C222.214 206.513 240.188 226.515 243.456 250.457H233.332C229.886 229.907 213.129 211.894 188.627 202.277L183.116 200.114L186.171 195.043C195.127 180.176 204.161 160.667 209.933 138.637C217.567 109.496 217.931 83.859 213.106 69.4674C211.038 63.2987 206.946 60.4417 202.729 59.6646C198.288 58.8462 193.348 60.2764 189.862 63.5299C188.061 65.2115 185.695 68.3237 183.033 72.7467C180.417 77.0928 177.672 82.4412 175.051 88.3687C169.796 100.254 165.174 114.164 163.062 126.584C159.649 146.66 158.222 171.767 158.674 190.069L158.805 195.366L153.51 195.189C152.57 195.158 151.626 195.138 150.678 195.13L149.729 195.127C148.283 195.127 146.849 195.153 145.426 195.207L140.097 195.409L140.238 190.078C140.725 171.742 139.305 146.388 135.863 126.146C133.752 113.726 129.13 99.8158 123.875 87.9303C121.254 82.0027 118.509 76.6544 115.893 72.3082C113.23 67.8853 110.865 64.7739 109.063 63.0924C105.577 59.8389 100.638 58.4085 96.1963 59.2271C91.9801 60.0044 87.8873 62.8608 85.8193 69.0289C80.9951 83.4205 81.3583 109.058 88.9932 138.2C94.8313 160.483 104.004 180.187 113.061 195.115L116.135 200.181L110.623 202.359C86.2315 211.997 69.5598 229.965 66.124 250.457H56C59.2583 226.588 77.1331 206.634 101.601 195.346C93.0935 180.409 84.8056 161.675 79.3193 140.735C71.4708 110.778 70.6192 82.9113 76.3379 65.8512C79.5415 56.2949 86.5289 50.84 94.3838 49.3922Z" fill="#5ADCCD"/>
</svg>
