<svg width="300" height="300" viewBox="0 0 300 300" fill="none" xmlns="http://www.w3.org/2000/svg">
<path fill-rule="evenodd" clip-rule="evenodd" d="M247.911 205.632C239.548 167.701 237.918 126.045 215.842 92.925C206.195 79.4203 190.695 61.8104 172.588 67.3606C173.334 59.3639 174.038 51.3637 174.69 43.3586C175.062 38.7796 176.776 32.6787 172.902 29.158C166.506 23.9917 155.919 31.8972 150.976 36.3143C140.267 46.5728 136.038 56.5366 121.932 63.3877C116.277 59.3565 110.766 55.1266 105.027 51.2043C99.1792 47.2077 90.8139 40.7155 84.7451 48.0936C79.6015 54.3476 82.8872 64.2054 84.9268 71.0863C85.9698 74.6055 87.0065 78.4466 88.456 82.0658C88.5783 84.8169 88.7911 87.563 89.1035 90.3012C78.654 92.1614 67.8996 93.7263 57.9159 97.3768C52.4713 100.327 52.9515 107.027 56.8139 111.038C62.5941 116.637 69.9085 121.016 77.8936 123.955C76.4436 128.975 72.9679 133.232 68.5976 136.015C67.1317 136.945 66.3095 138.308 66.0119 139.763C63.7718 140.876 61.3733 141.68 58.8397 142.201C55.7149 142.847 53.9095 146.536 54.7149 149.468C56.9842 156.595 64.9812 152.522 70.1763 152.018C70.3327 156.995 70.4139 162.181 72.6728 166.791C60.5991 169.961 50.1397 181.518 52.9312 194.54C55.4669 206.988 68.8991 210.792 79.5317 213.621C80.3372 214.096 80.3347 214.562 80.5906 215.737C82.3451 223.807 80.8679 232.685 78.102 240.347C77.3481 242.435 78.456 245.048 80.1307 246.301C88.7896 251.816 91.6604 235.02 101.531 245.711C100.795 245.601 98.9619 244.684 99.056 246.012C111.862 268.494 149.673 269.876 172.84 270.428C175.62 271.781 178.821 271.013 182.001 270.15C185.035 269.985 188.066 269.758 191.089 269.449C196.608 268.453 206.317 269.634 206.663 261.857C220.918 256.232 233.175 246.514 241.533 233.637C247.733 225.093 250.181 216.049 247.911 205.632Z" fill="white"/>
<path fill-rule="evenodd" clip-rule="evenodd" d="M161.462 26.3164L162.294 25.9529C165.164 24.71 168.297 23.5182 171.438 24.1977C175.055 24.9802 177.147 28.0928 178.043 31.4862C179.079 35.4115 179.543 39.5899 179.827 43.6301C180.12 47.8144 180.007 51.9898 179.692 56.1676C179.429 59.6616 178.886 63.7107 177.586 67.0972C177.641 67.0476 177.707 67.011 177.787 67.0026C182.903 66.4781 187.619 66.7837 192.505 68.4323C197.057 69.9681 201.47 72.1229 205.432 74.8452C213.988 80.7248 220.608 89.6045 225.221 98.7977C234.59 117.475 236.567 138.603 239.193 159.028L239.273 159.647C240.685 170.569 242.562 181.325 245.573 191.92L246.093 193.726C248.856 203.419 250.505 212.847 248.302 222.882C244.041 242.285 229.021 256.932 211.645 265.386C202.774 269.703 193.175 272.887 183.48 274.724C173.536 276.608 162.774 276.923 153.707 271.777C149.212 269.226 153.169 262.709 157.712 264.922C167.088 269.487 177.713 267.984 187.445 265.474C197.124 262.977 206.618 259.482 215.194 254.29C229.913 245.382 242.297 230.002 242.703 212.141C242.931 202.091 238.638 192.495 236.568 182.792C234.744 174.242 233.612 165.567 232.544 156.892L231.752 150.449C229.453 131.97 226.575 112.947 217.089 96.6151C208.715 82.1991 194.293 70.7357 177.694 67.6865C177.594 67.6687 177.528 67.6206 177.489 67.5597C176.981 70.295 173.967 72.8455 172.039 74.4193C169.307 76.6509 165.997 78.2679 162.396 78.1956C155.452 78.0564 149.49 72.6696 144.73 68.1585C144.194 67.6504 144.775 66.9412 145.385 67.0333C150.909 67.8648 155.645 72.3542 161.306 72.2873C164.22 72.2526 166.453 70.6887 168.355 68.6091C169.066 67.8316 169.691 66.8931 170.366 66.0304C170.533 63.7642 171.175 61.542 171.462 59.2862C171.73 57.1814 171.959 55.0444 172.096 52.9238C172.373 48.5964 172.285 44.2367 171.806 39.9257C171.601 38.0752 171.341 36.2077 170.937 34.3854L170.748 33.5641C170.498 32.4351 170.334 31.4065 168.97 31.5224C165.937 31.7789 162.547 33.6296 159.895 35.0262C149.614 40.4427 142.139 48.8177 136.622 58.6567C136.968 58.8301 137.299 59.0584 137.608 59.3555C138.231 59.9533 138.55 61.0062 138.265 61.8397C137.163 65.0607 133.248 65.1548 130.493 66.4162C127.491 67.79 124.671 69.5561 122 71.4905C116.744 75.2979 111.915 79.7709 107.323 84.3465C100.091 91.5513 93.3747 99.2191 86.8891 107.086L85.5089 110.17C84.1313 113.254 82.7838 116.347 81.6688 119.559C79.854 124.782 78.3337 130.121 77.1648 135.526C75.9886 140.966 75.2218 146.53 74.9312 152.088C74.6718 157.048 75.3297 162.004 75.302 166.934C75.7426 167.759 75.902 168.688 75.6946 169.636C77.0817 170.028 78.4252 170.627 79.6871 171.453C79.9946 171.655 79.7995 172.137 79.4366 172.048C77.8366 171.653 76.2361 171.566 74.6688 171.718C73.8371 172.744 72.4906 173.398 71.1842 173.369L70.6267 173.357C70.2183 173.348 69.8134 173.282 69.4223 173.171C67.2173 174.188 65.1886 175.651 63.4713 177.4C59.3421 181.605 57.348 187.115 57.6411 193.001C57.9312 198.807 61.0223 204.043 66.1421 206.832C68.4257 208.076 70.9634 208.73 73.5594 208.778C76.0569 208.823 79.3347 208.064 81.3866 209.692C81.6173 209.875 81.7693 210.119 81.8629 210.388C82.0059 209.784 82.1579 209.18 82.3238 208.58C82.4505 208.121 83.2144 208.067 83.3079 208.58L83.4284 209.248C85.1478 218.945 85.7526 228.928 92.5837 236.689C95.7787 240.319 99.6307 243.593 103.582 246.372L104.236 246.829C105.924 247.995 107.748 249.127 109.761 249.549C111.998 250.018 113.847 249.889 115.903 251.119C116.87 251.697 117.464 252.974 117.108 254.081C114.826 261.189 105.834 257.996 101.3 255.186C98.7797 253.624 96.3267 251.736 94.0475 249.656C92.0599 250.867 89.6995 251.648 87.6713 251.952C84.5431 252.421 81.2218 251.77 78.7282 249.749C76.0901 247.611 75.1876 244.501 75.6356 241.199C75.8585 239.557 76.2846 237.954 76.7437 236.363L77.1233 235.063C77.6767 233.17 78.1094 231.216 79.2252 229.564C79.7886 228.73 81.1257 228.809 81.4153 229.85C82.0782 232.234 81.7913 234.924 81.6197 237.407L81.5827 237.976C81.4703 239.844 80.6748 242.708 82.3114 244.092C84.2827 245.758 86.4401 244.997 88.5391 243.849C88.3252 243.588 88.1139 243.326 87.9064 243.063C81.1144 234.427 79.4252 223.676 81.2856 213.168C79.5327 215.468 74.9634 215.966 72.5386 215.787C68.7317 215.507 64.9856 214.349 61.7431 212.313C54.9515 208.051 51.1317 200.577 50.9693 192.625C50.8109 184.905 54.2639 177.096 60.6312 172.6C62.3134 171.413 64.1847 170.49 66.1381 169.882C65.1886 166.111 65.0881 161.944 65.2941 157.866C63.0163 158.176 60.5505 157.774 58.4911 157.072L58.1714 156.961C54.9975 155.823 50.9665 153.538 50.3723 149.97C49.6406 145.582 55.0535 143.061 58.1941 141.308C59.663 140.488 61.1651 139.722 62.7245 139.089L63.1941 138.903C64.5401 138.385 66.1248 137.419 67.4911 138.189C67.5886 138.244 67.6124 138.348 67.598 138.451C67.3277 140.355 64.2079 141.975 62.8208 143.176C61.7554 144.098 60.7257 145.063 59.7376 146.068C59.097 146.719 58.1337 148.366 57.3119 148.828C57.6936 149.028 58.151 149.519 58.4698 149.708C59.3678 150.237 60.3149 150.61 61.3282 150.852C62.8347 151.213 64.3436 151.058 65.852 151.024C66.4644 145.019 67.5762 139.145 69.3663 133.376C72.3688 123.697 77.2901 113.5 84.3109 105.848C89.4589 96.1996 96.1079 87.3868 103.702 79.506C108.573 74.452 113.718 69.5481 119.424 65.4416C121.954 63.6212 124.615 61.981 127.439 60.6596L128.377 60.229C129.945 59.5033 131.852 58.5612 133.67 58.2917C134.847 53.6226 136.942 49.157 139.485 45.1094C142.988 39.5324 147.598 34.8286 152.993 31.0702C155.654 29.215 158.491 27.6199 161.462 26.3164ZM67.8805 188.941C72.4067 185.899 77.9577 184.709 83.3666 185.159C86.0498 185.381 88.7038 186.01 91.2182 186.972L92.2548 187.382C94.6564 188.345 97.234 189.533 97.3201 192.439C97.3542 193.586 96.5052 194.5 95.4805 194.856C92.981 195.725 90.9557 193.644 88.8919 192.537C86.8082 191.417 84.5934 190.679 82.3117 190.082C82.0929 190.024 81.8736 189.972 81.6547 189.92C81.7736 190.158 81.8409 190.422 81.8176 190.706C81.7612 191.385 81.5637 191.89 81.3716 192.527C81.3137 192.72 81.1726 193.9 81.028 194.045C81.075 194.446 81.08 194.826 81.0924 195.23C81.127 196.423 80.98 197.431 80.3711 198.487C78.8543 201.118 74.5181 201.361 73.0661 198.487C71.6142 195.614 72.7488 192.802 74.9552 190.735C75.5567 190.173 76.3587 189.6 77.23 189.205C74.1706 188.925 71.077 189.058 68.0206 189.46C67.7226 189.499 67.677 189.078 67.8805 188.941ZM68.1511 92.5434C74.3591 91.4875 80.8422 91.2771 87.1076 91.9016C87.4492 91.9362 87.5769 92.4562 87.1942 92.5399C77.667 94.6323 67.7907 95.3394 59.2905 100.581L58.8992 100.826C58.0833 101.345 56.1422 102.325 55.7383 103.249C55.2615 104.338 56.5526 105.739 57.1531 106.525C58.5031 108.291 60.1803 109.833 62.0318 111.06C63.9878 112.355 66.0907 113.355 68.3526 113.986C69.4269 114.287 70.5412 114.439 71.6031 114.781C72.812 115.169 73.2021 115.789 74.118 116.598C75.1734 117.53 74.819 119.319 73.6808 119.988L73.3614 120.174C71.8658 121.03 71.0345 121.283 69.1348 120.948C67.6487 120.685 66.2294 120.166 64.8383 119.588C62.2824 118.526 59.9497 117.136 57.7974 115.406L57.4759 115.143C53.6323 111.965 47.12 105.013 51.4096 99.9512C55.1957 95.4851 62.6358 93.4814 68.1511 92.5434ZM83.4402 44.3884C89.3942 37.3718 97.8031 42.1628 103.769 46.358C110.2 50.8786 115.779 56.2108 120.29 62.6535C120.576 63.063 120.022 63.5612 119.623 63.3205C114.621 60.304 109.567 57.4163 104.437 54.6206C102.331 53.4727 100.222 52.3525 98.0663 51.3034L96.9143 50.749C95.1141 49.86 92.5293 48.2379 90.6095 49.2958C86.4697 51.5782 89.0248 59.0542 89.8778 62.6749L89.9555 63.0165L92.5569 74.9316L93.7422 80.296C94.1635 80.6377 94.514 81.0948 94.762 81.6842C95.4333 83.2774 94.8852 85.4297 93.2615 86.2656C88.4689 88.733 86.8461 83.9142 85.9437 80.293C85.2103 77.3513 84.4693 74.4113 83.7267 71.4719L82.4983 66.6142C80.6169 59.2607 77.9459 50.8628 83.4402 44.3884Z" fill="black"/>
<path fill-rule="evenodd" clip-rule="evenodd" d="M223.173 150.782C234.792 150.782 241.424 153.282 243.853 153.477L243.927 153.482C244.937 153.547 245.844 153.631 246.795 153.999C250.293 155.347 250.863 159.017 248.821 161.33C248.678 166.115 249.307 171.707 248.228 176.509C246.896 196.75 237.381 200.166 231.972 201.412C229.257 202.038 226.038 202.288 223.154 201.627C218.233 201.443 213.368 199.902 209.206 197.219C203.41 193.479 199.104 187.73 197.707 180.908C197.045 177.656 196.736 174.271 197.096 170.965L197.149 170.51C195.265 169.608 193.082 169.438 190.831 169.358C189.756 169.32 188.696 169.286 187.667 169.331C186.66 169.444 185.666 169.593 184.669 169.797C183.58 170.126 182.551 170.669 181.602 171.528L181.536 172.782C181.358 175.915 180.947 179.057 180.312 182.131C179.376 186.666 177.87 190.998 174.664 194.215C173.579 195.836 172.237 197.283 170.607 198.536C164.686 203.097 156.641 204.771 149.258 204.14C134.27 202.861 125.606 190.958 123.61 185.87L123.49 185.562C122.048 181.779 120.899 176.872 116.341 176.059L115.372 175.885C113.292 175.494 111.373 174.951 110.153 172.921C109.619 172.035 109.344 171.044 109.277 170.033C108.565 170.088 107.855 170.14 107.147 170.191C101.499 171.386 67.6239 172.399 64.9201 172.399C64.9201 172.399 59.7225 174.587 57.5281 172.891C56.0071 171.712 55.5067 170.141 56.344 168.361C57.6074 165.682 63.4359 164.071 66.0239 163.561C66.0239 163.561 107.789 163.908 110.795 163.338C112.654 161.419 115.981 161.682 118.761 161.378C121.063 159.737 124.282 158.637 126.825 157.901C127.343 157.705 127.856 157.515 128.355 157.336C133.017 155.675 137.863 154.795 142.783 154.323C147.856 153.84 152.944 154.059 157.988 154.75C160.113 155.038 162.219 155.411 164.31 155.899C168.053 156.393 171.775 157.206 175.52 158.171L176.27 158.366C180.213 159.4 184.266 160.295 188.348 159.594C191.672 159.026 194.868 157.747 197.932 156.363L198.331 156.182C205.069 153.104 215.592 150.782 223.173 150.782ZM163.904 162.035C161.418 161.488 160.357 165.323 162.851 165.871C164.617 166.26 166.114 167.151 167.125 168.66L167.231 168.824C168.588 170.984 172.02 168.99 170.653 166.816C169.116 164.369 166.727 162.656 163.904 162.035ZM236.719 159.658C235.843 159.04 234.517 159.499 234.008 160.371C233.448 161.332 233.815 162.402 234.636 163.031L234.719 163.092C235.472 163.623 236.206 164.575 236.298 165.55L236.306 165.672C236.404 168.223 240.368 168.236 240.269 165.672C240.173 163.163 238.72 161.067 236.719 159.658Z" fill="black"/>
<path d="M235.442 161.452C235.455 161.475 235.496 161.531 235.64 161.646C235.77 161.75 236.019 161.938 236.162 162.053C236.305 162.168 236.337 162.202 236.423 162.284C236.51 162.366 236.651 162.494 236.749 162.589C236.973 162.804 237.009 162.871 237.116 163.027C237.194 163.141 237.327 163.364 237.417 163.499C237.538 163.684 237.588 163.748 237.61 163.817C237.626 163.865 237.659 163.937 237.707 164.036C237.816 164.258 237.894 164.424 237.934 164.558C238.006 164.798 238.084 164.952 238.087 164.988C238.095 165.098 238.161 165.186 238.28 165.307C238.342 165.37 238.326 165.451 238.32 165.624C238.318 165.665 238.321 165.687 238.338 165.698C238.355 165.709 238.389 165.709 238.41 165.705C238.431 165.7 238.438 165.691 238.442 165.679C238.462 165.619 238.466 165.513 238.472 165.199C238.474 165.104 238.487 165.06 238.494 165.021C238.502 164.976 238.471 164.823 238.436 164.603C238.414 164.458 238.413 164.381 238.363 164.302C238.254 164.13 238.121 164.032 238.092 163.985C238.059 163.934 238.046 163.89 238.001 163.793C237.887 163.547 237.787 163.375 237.763 163.324C237.667 163.123 237.527 163.049 237.442 162.984C237.372 162.93 237.352 162.85 237.308 162.767C237.234 162.629 237.11 162.533 237.05 162.495C237.025 162.478 236.93 162.29 236.789 162.025C236.705 161.867 236.595 161.799 236.51 161.746C236.464 161.717 236.428 161.683 236.319 161.567C236.249 161.495 236.186 161.455 235.982 161.284C235.86 161.181 235.668 161.141 235.587 161.123C235.55 161.115 235.518 161.128 235.498 161.143C235.457 161.173 235.431 161.221 235.401 161.266C235.369 161.315 235.371 161.36 235.366 161.372C235.345 161.417 235.423 161.23 235.485 161.163C235.527 161.117 235.603 161.139 235.645 161.114C235.665 161.102 235.689 161.087 235.724 161.078C235.808 161.056 235.86 161.13 235.905 161.163C235.964 161.206 236.01 161.281 236.052 161.318C236.1 161.361 236.155 161.417 236.208 161.469C236.277 161.537 236.447 161.667 236.53 161.731C236.567 161.76 236.499 161.631 236.504 161.578C236.505 161.567 236.524 161.568 236.523 161.568C236.506 161.569 236.472 161.563 236.441 161.545C236.373 161.506 236.344 161.401 236.307 161.367C236.265 161.329 236.209 161.335 236.156 161.29C236.112 161.252 236.08 161.212 236.025 161.195C235.966 161.177 235.921 161.089 235.868 161.065C235.805 161.037 235.748 161.026 235.698 161.006C235.673 160.996 235.625 160.997 235.572 161.002C235.511 161.008 235.476 161.072 235.439 161.111C235.401 161.152 235.391 161.212 235.351 161.275C235.341 161.29 235.339 161.305 235.339 161.32C235.342 161.389 235.428 161.455 235.479 161.499C235.548 161.559 235.587 161.61 235.614 161.676C235.654 161.773 235.644 161.831 235.667 161.881C235.701 161.954 235.768 161.994 235.856 162.055C235.908 162.091 235.947 162.126 235.995 162.158C236.044 162.19 236.085 162.214 236.143 162.249C236.204 162.286 236.244 162.331 236.385 162.476C236.62 162.717 236.689 162.745 236.784 162.832C236.847 162.89 236.885 162.945 236.938 162.986C237.009 163.039 237.061 163.106 237.097 163.152C237.134 163.2 237.206 163.287 237.268 163.355C237.355 163.452 237.402 163.512 237.453 163.566C237.514 163.629 237.559 163.734 237.59 163.801C237.618 163.859 237.657 163.918 237.687 163.987C237.73 164.089 237.839 164.247 237.863 164.32C237.881 164.377 237.888 164.457 237.895 164.548C237.906 164.689 237.915 164.764 237.953 164.833C238.006 164.93 237.986 165.088 237.983 165.258C237.982 165.36 238.005 165.472 238.027 165.549C238.045 165.61 238.08 165.669 238.108 165.767C238.125 165.824 238.155 165.872 238.183 165.912C238.212 165.951 238.286 165.94 238.34 165.946C238.399 165.953 238.449 165.971 238.477 166.006C238.507 166.045 238.573 165.977 238.607 165.934C238.663 165.864 238.596 165.788 238.593 165.737C238.589 165.685 238.615 165.636 238.621 165.569C238.628 165.497 238.62 165.44 238.616 165.332C238.607 165.057 238.606 164.852 238.581 164.776C238.498 164.522 238.459 164.459 238.45 164.397C238.441 164.339 238.412 164.288 238.379 164.234C238.337 164.163 238.344 164.093 238.321 164.023C238.298 163.953 238.262 163.908 238.231 163.813C238.204 163.731 238.189 163.674 238.123 163.475C238.096 163.395 238.052 163.359 238.017 163.323C237.978 163.282 237.969 163.216 237.944 163.145C237.925 163.095 237.875 163.059 237.851 163.007C237.829 162.963 237.793 162.925 237.764 162.877C237.719 162.801 237.685 162.759 237.669 162.708C237.654 162.659 237.603 162.63 237.564 162.57C237.508 162.484 237.462 162.436 237.422 162.401C237.381 162.365 237.337 162.335 237.292 162.263C237.253 162.201 237.184 162.171 237.138 162.103C237.099 162.046 236.998 162.002 236.937 161.967C236.887 161.939 236.834 161.898 236.794 161.863C236.743 161.819 236.696 161.785 236.663 161.744C236.624 161.697 236.558 161.66 236.52 161.608C236.488 161.566 236.459 161.524 236.407 161.47C236.352 161.412 236.323 161.342 236.277 161.289C236.267 161.278 236.257 161.271 236.25 161.272C236.242 161.273 236.237 161.284 236.238 161.294C236.246 161.351 236.314 161.39 236.377 161.451C236.422 161.495 236.47 161.525 236.514 161.571C236.554 161.611 236.581 161.66 236.613 161.701C236.652 161.75 236.726 161.832 236.785 161.891C236.822 161.93 236.881 161.972 236.926 162.012C236.961 162.044 236.991 162.104 237.059 162.22C237.097 162.284 237.179 162.361 237.248 162.443C237.268 162.467 237.329 162.549 237.406 162.645C237.413 162.654 237.375 162.62 237.317 162.574C237.214 162.494 237.118 162.35 237.036 162.273C237.019 162.258 237.008 162.253 237.004 162.241C236.98 162.182 236.994 162.119 237.008 162.072C237.021 162.027 237.048 162 237.053 161.982C237.067 161.936 236.979 161.92 236.953 161.88C236.928 161.84 236.869 161.83 236.843 161.79C236.816 161.751 236.783 161.716 236.749 161.685C236.713 161.652 236.674 161.623 236.639 161.59C236.605 161.556 236.572 161.521 236.52 161.484C236.431 161.421 236.392 161.384 236.353 161.355C236.312 161.323 236.281 161.282 236.252 161.244C236.224 161.207 236.161 161.205 236.114 161.177C236.073 161.152 236.031 161.121 235.982 161.096C235.932 161.07 235.885 161.044 235.842 161.016C235.801 160.99 235.746 160.975 235.698 160.956C235.687 160.951 235.675 160.949 235.674 160.945C235.669 160.905 235.762 160.946 235.854 160.978C235.89 160.99 235.909 161.117 236.006 161.337C236.066 161.471 236.15 161.534 236.257 161.692C236.355 161.837 236.546 162.111 236.648 162.266C236.75 162.421 236.757 162.449 236.787 162.531C236.817 162.614 236.869 162.751 236.915 162.894C237.007 163.18 237.047 163.353 237.07 163.4C237.12 163.502 237.164 163.531 237.198 163.569C237.232 163.606 237.261 163.645 237.299 163.678C237.349 163.721 237.407 163.792 237.43 163.845C237.449 163.89 237.463 163.938 237.493 163.982C237.52 164.021 237.538 164.07 237.558 164.118C237.579 164.166 237.583 164.222 237.595 164.27C237.607 164.318 237.626 164.361 237.653 164.413C237.705 164.514 237.729 164.605 237.751 164.659C237.775 164.718 237.813 164.773 237.837 164.841C237.859 164.899 237.87 164.979 237.892 165.041C237.913 165.101 237.92 165.178 237.941 165.227C237.97 165.293 237.984 165.338 237.993 165.399C238.003 165.469 237.983 165.553 237.993 165.62C238 165.669 238.019 165.715 238.028 165.762C238.036 165.81 238.043 165.859 238.059 165.905C238.063 165.916 238.065 165.928 238.069 165.94C238.072 165.952 238.076 165.964 238.08 165.978" stroke="white" stroke-width="3" stroke-linecap="round"/>
</svg>
