<svg width="1280" height="670" viewBox="0 0 1280 670" fill="none" xmlns="http://www.w3.org/2000/svg">
<rect width="1280" height="670" fill="#F4FFFD"/>
<path d="M573.398 423.727H578.318V438.841C578.318 440.538 577.913 442.023 577.102 443.295C576.299 444.568 575.174 445.561 573.727 446.273C572.28 446.977 570.595 447.33 568.67 447.33C566.739 447.33 565.049 446.977 563.602 446.273C562.155 445.561 561.03 444.568 560.227 443.295C559.424 442.023 559.023 440.538 559.023 438.841V423.727H563.943V438.42C563.943 439.307 564.136 440.095 564.523 440.784C564.917 441.473 565.47 442.015 566.182 442.409C566.894 442.803 567.723 443 568.67 443C569.625 443 570.455 442.803 571.159 442.409C571.871 442.015 572.42 441.473 572.807 440.784C573.201 440.095 573.398 439.307 573.398 438.42V423.727ZM596.798 434.523L592.366 434.795C592.291 434.417 592.128 434.076 591.878 433.773C591.628 433.462 591.298 433.216 590.889 433.034C590.488 432.845 590.007 432.75 589.446 432.75C588.696 432.75 588.063 432.909 587.548 433.227C587.033 433.538 586.776 433.955 586.776 434.477C586.776 434.894 586.942 435.246 587.276 435.534C587.609 435.822 588.181 436.053 588.991 436.227L592.151 436.864C593.848 437.212 595.113 437.773 595.946 438.545C596.779 439.318 597.196 440.333 597.196 441.591C597.196 442.735 596.859 443.739 596.185 444.602C595.518 445.466 594.601 446.14 593.435 446.625C592.276 447.102 590.938 447.341 589.423 447.341C587.113 447.341 585.272 446.86 583.901 445.898C582.537 444.928 581.738 443.61 581.503 441.943L586.264 441.693C586.408 442.398 586.757 442.936 587.31 443.307C587.863 443.67 588.571 443.852 589.435 443.852C590.283 443.852 590.965 443.689 591.48 443.364C592.003 443.03 592.268 442.602 592.276 442.08C592.268 441.64 592.082 441.28 591.719 441C591.355 440.712 590.795 440.492 590.037 440.341L587.014 439.739C585.31 439.398 584.041 438.807 583.207 437.966C582.382 437.125 581.969 436.053 581.969 434.75C581.969 433.629 582.272 432.663 582.878 431.852C583.491 431.042 584.351 430.417 585.457 429.977C586.571 429.538 587.874 429.318 589.366 429.318C591.571 429.318 593.306 429.784 594.571 430.716C595.844 431.648 596.586 432.917 596.798 434.523ZM605.222 447.33C604.108 447.33 603.116 447.136 602.244 446.75C601.373 446.356 600.684 445.777 600.176 445.011C599.676 444.239 599.426 443.277 599.426 442.125C599.426 441.155 599.604 440.341 599.96 439.682C600.316 439.023 600.801 438.492 601.415 438.091C602.028 437.689 602.725 437.386 603.506 437.182C604.294 436.977 605.119 436.833 605.983 436.75C606.998 436.644 607.816 436.545 608.438 436.455C609.059 436.356 609.509 436.212 609.79 436.023C610.07 435.833 610.21 435.553 610.21 435.182V435.114C610.21 434.394 609.983 433.837 609.528 433.443C609.081 433.049 608.445 432.852 607.619 432.852C606.748 432.852 606.055 433.045 605.54 433.432C605.025 433.811 604.684 434.288 604.517 434.864L600.04 434.5C600.267 433.439 600.714 432.523 601.381 431.75C602.047 430.97 602.907 430.371 603.96 429.955C605.021 429.53 606.248 429.318 607.642 429.318C608.612 429.318 609.54 429.432 610.426 429.659C611.32 429.886 612.112 430.239 612.801 430.716C613.498 431.193 614.047 431.807 614.449 432.557C614.85 433.299 615.051 434.189 615.051 435.227V447H610.46V444.58H610.324C610.044 445.125 609.669 445.606 609.199 446.023C608.729 446.432 608.165 446.754 607.506 446.989C606.847 447.216 606.085 447.33 605.222 447.33ZM606.608 443.989C607.32 443.989 607.949 443.848 608.494 443.568C609.04 443.28 609.468 442.894 609.778 442.409C610.089 441.924 610.244 441.375 610.244 440.761V438.909C610.093 439.008 609.884 439.098 609.619 439.182C609.362 439.258 609.07 439.33 608.744 439.398C608.419 439.458 608.093 439.515 607.767 439.568C607.441 439.614 607.146 439.655 606.881 439.693C606.313 439.777 605.816 439.909 605.392 440.091C604.968 440.273 604.638 440.519 604.403 440.83C604.169 441.133 604.051 441.511 604.051 441.966C604.051 442.625 604.29 443.129 604.767 443.477C605.252 443.818 605.866 443.989 606.608 443.989ZM626.67 453.909C625.102 453.909 623.758 453.693 622.636 453.261C621.523 452.837 620.636 452.258 619.977 451.523C619.318 450.788 618.89 449.962 618.693 449.045L623.17 448.443C623.307 448.792 623.523 449.117 623.818 449.42C624.114 449.723 624.504 449.966 624.989 450.148C625.481 450.337 626.08 450.432 626.784 450.432C627.837 450.432 628.705 450.174 629.386 449.659C630.076 449.152 630.42 448.299 630.42 447.102V443.909H630.216C630.004 444.394 629.686 444.852 629.261 445.284C628.837 445.716 628.292 446.068 627.625 446.341C626.958 446.614 626.163 446.75 625.239 446.75C623.928 446.75 622.735 446.447 621.659 445.841C620.591 445.227 619.739 444.292 619.102 443.034C618.473 441.769 618.159 440.17 618.159 438.239C618.159 436.261 618.481 434.61 619.125 433.284C619.769 431.958 620.625 430.966 621.693 430.307C622.769 429.648 623.947 429.318 625.227 429.318C626.205 429.318 627.023 429.485 627.682 429.818C628.341 430.144 628.871 430.553 629.273 431.045C629.682 431.53 629.996 432.008 630.216 432.477H630.398V429.545H635.205V447.17C635.205 448.655 634.841 449.898 634.114 450.898C633.386 451.898 632.379 452.648 631.091 453.148C629.811 453.655 628.337 453.909 626.67 453.909ZM626.773 443.114C627.553 443.114 628.212 442.92 628.75 442.534C629.295 442.14 629.712 441.58 630 440.852C630.295 440.117 630.443 439.239 630.443 438.216C630.443 437.193 630.299 436.307 630.011 435.557C629.723 434.799 629.307 434.212 628.761 433.795C628.216 433.379 627.553 433.17 626.773 433.17C625.977 433.17 625.307 433.386 624.761 433.818C624.216 434.242 623.803 434.833 623.523 435.591C623.242 436.348 623.102 437.223 623.102 438.216C623.102 439.223 623.242 440.095 623.523 440.83C623.811 441.557 624.223 442.121 624.761 442.523C625.307 442.917 625.977 443.114 626.773 443.114ZM639.057 447V429.545H643.898V447H639.057ZM641.489 427.295C640.769 427.295 640.152 427.057 639.636 426.58C639.129 426.095 638.875 425.515 638.875 424.841C638.875 424.174 639.129 423.602 639.636 423.125C640.152 422.64 640.769 422.398 641.489 422.398C642.208 422.398 642.822 422.64 643.33 423.125C643.845 423.602 644.102 424.174 644.102 424.841C644.102 425.515 643.845 426.095 643.33 426.58C642.822 427.057 642.208 427.295 641.489 427.295ZM655.273 447V423.727H664.591C666.303 423.727 667.731 423.981 668.875 424.489C670.019 424.996 670.879 425.701 671.455 426.602C672.03 427.496 672.318 428.527 672.318 429.693C672.318 430.602 672.136 431.402 671.773 432.091C671.409 432.773 670.909 433.333 670.273 433.773C669.644 434.205 668.924 434.511 668.114 434.693V434.92C669 434.958 669.83 435.208 670.602 435.67C671.383 436.133 672.015 436.78 672.5 437.614C672.985 438.439 673.227 439.424 673.227 440.568C673.227 441.803 672.92 442.905 672.307 443.875C671.701 444.837 670.803 445.598 669.614 446.159C668.424 446.72 666.958 447 665.216 447H655.273ZM660.193 442.977H664.205C665.576 442.977 666.576 442.716 667.205 442.193C667.833 441.663 668.148 440.958 668.148 440.08C668.148 439.436 667.992 438.867 667.682 438.375C667.371 437.883 666.928 437.496 666.352 437.216C665.784 436.936 665.106 436.795 664.318 436.795H660.193V442.977ZM660.193 433.466H663.841C664.515 433.466 665.114 433.348 665.636 433.114C666.167 432.871 666.583 432.53 666.886 432.091C667.197 431.652 667.352 431.125 667.352 430.511C667.352 429.67 667.053 428.992 666.455 428.477C665.864 427.962 665.023 427.705 663.932 427.705H660.193V433.466ZM681.179 423.727V447H676.338V423.727H681.179ZM692.943 447.341C691.178 447.341 689.652 446.966 688.364 446.216C687.083 445.458 686.095 444.405 685.398 443.057C684.701 441.701 684.352 440.129 684.352 438.341C684.352 436.538 684.701 434.962 685.398 433.614C686.095 432.258 687.083 431.205 688.364 430.455C689.652 429.697 691.178 429.318 692.943 429.318C694.708 429.318 696.231 429.697 697.511 430.455C698.799 431.205 699.792 432.258 700.489 433.614C701.186 434.962 701.534 436.538 701.534 438.341C701.534 440.129 701.186 441.701 700.489 443.057C699.792 444.405 698.799 445.458 697.511 446.216C696.231 446.966 694.708 447.341 692.943 447.341ZM692.966 443.591C693.769 443.591 694.439 443.364 694.977 442.909C695.515 442.447 695.92 441.818 696.193 441.023C696.473 440.227 696.614 439.322 696.614 438.307C696.614 437.292 696.473 436.386 696.193 435.591C695.92 434.795 695.515 434.167 694.977 433.705C694.439 433.242 693.769 433.011 692.966 433.011C692.155 433.011 691.473 433.242 690.92 433.705C690.375 434.167 689.962 434.795 689.682 435.591C689.409 436.386 689.273 437.292 689.273 438.307C689.273 439.322 689.409 440.227 689.682 441.023C689.962 441.818 690.375 442.447 690.92 442.909C691.473 443.364 692.155 443.591 692.966 443.591ZM712.545 453.909C710.977 453.909 709.633 453.693 708.511 453.261C707.398 452.837 706.511 452.258 705.852 451.523C705.193 450.788 704.765 449.962 704.568 449.045L709.045 448.443C709.182 448.792 709.398 449.117 709.693 449.42C709.989 449.723 710.379 449.966 710.864 450.148C711.356 450.337 711.955 450.432 712.659 450.432C713.712 450.432 714.58 450.174 715.261 449.659C715.951 449.152 716.295 448.299 716.295 447.102V443.909H716.091C715.879 444.394 715.561 444.852 715.136 445.284C714.712 445.716 714.167 446.068 713.5 446.341C712.833 446.614 712.038 446.75 711.114 446.75C709.803 446.75 708.61 446.447 707.534 445.841C706.466 445.227 705.614 444.292 704.977 443.034C704.348 441.769 704.034 440.17 704.034 438.239C704.034 436.261 704.356 434.61 705 433.284C705.644 431.958 706.5 430.966 707.568 430.307C708.644 429.648 709.822 429.318 711.102 429.318C712.08 429.318 712.898 429.485 713.557 429.818C714.216 430.144 714.746 430.553 715.148 431.045C715.557 431.53 715.871 432.008 716.091 432.477H716.273V429.545H721.08V447.17C721.08 448.655 720.716 449.898 719.989 450.898C719.261 451.898 718.254 452.648 716.966 453.148C715.686 453.655 714.212 453.909 712.545 453.909ZM712.648 443.114C713.428 443.114 714.087 442.92 714.625 442.534C715.17 442.14 715.587 441.58 715.875 440.852C716.17 440.117 716.318 439.239 716.318 438.216C716.318 437.193 716.174 436.307 715.886 435.557C715.598 434.799 715.182 434.212 714.636 433.795C714.091 433.379 713.428 433.17 712.648 433.17C711.852 433.17 711.182 433.386 710.636 433.818C710.091 434.242 709.678 434.833 709.398 435.591C709.117 436.348 708.977 437.223 708.977 438.216C708.977 439.223 709.117 440.095 709.398 440.83C709.686 441.557 710.098 442.121 710.636 442.523C711.182 442.917 711.852 443.114 712.648 443.114Z" fill="#D7D7D7"/>
<path d="M594 305C611.121 305 625 291.121 625 274C625 256.879 611.121 243 594 243C576.879 243 563 256.879 563 274C563 291.121 576.879 305 594 305Z" fill="#00C8AF"/>
<path d="M686 274C703.121 274 717 260.121 717 243C717 225.879 703.121 212 686 212C668.879 212 655 225.879 655 243C655 260.121 668.879 274 686 274Z" fill="#00C8AF"/>
<path d="M594 398C611.121 398 625 384.121 625 367C625 349.879 611.121 336 594 336C576.879 336 563 349.879 563 367C563 384.121 576.879 398 594 398Z" fill="#D9D9D9"/>
<path d="M686 367C703.121 367 717 353.121 717 336C717 318.879 703.121 305 686 305C668.879 305 655 318.879 655 336C655 353.121 668.879 367 686 367Z" fill="#00C8AF"/>
</svg>
