<svg width="1280" height="670" viewBox="0 0 1280 670" fill="none" xmlns="http://www.w3.org/2000/svg">
<rect width="1280" height="670" fill="#F0FFFA"/>
<path d="M574.398 449.727H579.318V464.841C579.318 466.538 578.913 468.023 578.102 469.295C577.299 470.568 576.174 471.561 574.727 472.273C573.28 472.977 571.595 473.33 569.67 473.33C567.739 473.33 566.049 472.977 564.602 472.273C563.155 471.561 562.03 470.568 561.227 469.295C560.424 468.023 560.023 466.538 560.023 464.841V449.727H564.943V464.42C564.943 465.307 565.136 466.095 565.523 466.784C565.917 467.473 566.47 468.015 567.182 468.409C567.894 468.803 568.723 469 569.67 469C570.625 469 571.455 468.803 572.159 468.409C572.871 468.015 573.42 467.473 573.807 466.784C574.201 466.095 574.398 465.307 574.398 464.42V449.727ZM597.798 460.523L593.366 460.795C593.291 460.417 593.128 460.076 592.878 459.773C592.628 459.462 592.298 459.216 591.889 459.034C591.488 458.845 591.007 458.75 590.446 458.75C589.696 458.75 589.063 458.909 588.548 459.227C588.033 459.538 587.776 459.955 587.776 460.477C587.776 460.894 587.942 461.246 588.276 461.534C588.609 461.822 589.181 462.053 589.991 462.227L593.151 462.864C594.848 463.212 596.113 463.773 596.946 464.545C597.779 465.318 598.196 466.333 598.196 467.591C598.196 468.735 597.859 469.739 597.185 470.602C596.518 471.466 595.601 472.14 594.435 472.625C593.276 473.102 591.938 473.341 590.423 473.341C588.113 473.341 586.272 472.86 584.901 471.898C583.537 470.928 582.738 469.61 582.503 467.943L587.264 467.693C587.408 468.398 587.757 468.936 588.31 469.307C588.863 469.67 589.571 469.852 590.435 469.852C591.283 469.852 591.965 469.689 592.48 469.364C593.003 469.03 593.268 468.602 593.276 468.08C593.268 467.64 593.082 467.28 592.719 467C592.355 466.712 591.795 466.492 591.037 466.341L588.014 465.739C586.31 465.398 585.041 464.807 584.207 463.966C583.382 463.125 582.969 462.053 582.969 460.75C582.969 459.629 583.272 458.663 583.878 457.852C584.491 457.042 585.351 456.417 586.457 455.977C587.571 455.538 588.874 455.318 590.366 455.318C592.571 455.318 594.306 455.784 595.571 456.716C596.844 457.648 597.586 458.917 597.798 460.523ZM606.222 473.33C605.108 473.33 604.116 473.136 603.244 472.75C602.373 472.356 601.684 471.777 601.176 471.011C600.676 470.239 600.426 469.277 600.426 468.125C600.426 467.155 600.604 466.341 600.96 465.682C601.316 465.023 601.801 464.492 602.415 464.091C603.028 463.689 603.725 463.386 604.506 463.182C605.294 462.977 606.119 462.833 606.983 462.75C607.998 462.644 608.816 462.545 609.438 462.455C610.059 462.356 610.509 462.212 610.79 462.023C611.07 461.833 611.21 461.553 611.21 461.182V461.114C611.21 460.394 610.983 459.837 610.528 459.443C610.081 459.049 609.445 458.852 608.619 458.852C607.748 458.852 607.055 459.045 606.54 459.432C606.025 459.811 605.684 460.288 605.517 460.864L601.04 460.5C601.267 459.439 601.714 458.523 602.381 457.75C603.047 456.97 603.907 456.371 604.96 455.955C606.021 455.53 607.248 455.318 608.642 455.318C609.612 455.318 610.54 455.432 611.426 455.659C612.32 455.886 613.112 456.239 613.801 456.716C614.498 457.193 615.047 457.807 615.449 458.557C615.85 459.299 616.051 460.189 616.051 461.227V473H611.46V470.58H611.324C611.044 471.125 610.669 471.606 610.199 472.023C609.729 472.432 609.165 472.754 608.506 472.989C607.847 473.216 607.085 473.33 606.222 473.33ZM607.608 469.989C608.32 469.989 608.949 469.848 609.494 469.568C610.04 469.28 610.468 468.894 610.778 468.409C611.089 467.924 611.244 467.375 611.244 466.761V464.909C611.093 465.008 610.884 465.098 610.619 465.182C610.362 465.258 610.07 465.33 609.744 465.398C609.419 465.458 609.093 465.515 608.767 465.568C608.441 465.614 608.146 465.655 607.881 465.693C607.313 465.777 606.816 465.909 606.392 466.091C605.968 466.273 605.638 466.519 605.403 466.83C605.169 467.133 605.051 467.511 605.051 467.966C605.051 468.625 605.29 469.129 605.767 469.477C606.252 469.818 606.866 469.989 607.608 469.989ZM627.67 479.909C626.102 479.909 624.758 479.693 623.636 479.261C622.523 478.837 621.636 478.258 620.977 477.523C620.318 476.788 619.89 475.962 619.693 475.045L624.17 474.443C624.307 474.792 624.523 475.117 624.818 475.42C625.114 475.723 625.504 475.966 625.989 476.148C626.481 476.337 627.08 476.432 627.784 476.432C628.837 476.432 629.705 476.174 630.386 475.659C631.076 475.152 631.42 474.299 631.42 473.102V469.909H631.216C631.004 470.394 630.686 470.852 630.261 471.284C629.837 471.716 629.292 472.068 628.625 472.341C627.958 472.614 627.163 472.75 626.239 472.75C624.928 472.75 623.735 472.447 622.659 471.841C621.591 471.227 620.739 470.292 620.102 469.034C619.473 467.769 619.159 466.17 619.159 464.239C619.159 462.261 619.481 460.61 620.125 459.284C620.769 457.958 621.625 456.966 622.693 456.307C623.769 455.648 624.947 455.318 626.227 455.318C627.205 455.318 628.023 455.485 628.682 455.818C629.341 456.144 629.871 456.553 630.273 457.045C630.682 457.53 630.996 458.008 631.216 458.477H631.398V455.545H636.205V473.17C636.205 474.655 635.841 475.898 635.114 476.898C634.386 477.898 633.379 478.648 632.091 479.148C630.811 479.655 629.337 479.909 627.67 479.909ZM627.773 469.114C628.553 469.114 629.212 468.92 629.75 468.534C630.295 468.14 630.712 467.58 631 466.852C631.295 466.117 631.443 465.239 631.443 464.216C631.443 463.193 631.299 462.307 631.011 461.557C630.723 460.799 630.307 460.212 629.761 459.795C629.216 459.379 628.553 459.17 627.773 459.17C626.977 459.17 626.307 459.386 625.761 459.818C625.216 460.242 624.803 460.833 624.523 461.591C624.242 462.348 624.102 463.223 624.102 464.216C624.102 465.223 624.242 466.095 624.523 466.83C624.811 467.557 625.223 468.121 625.761 468.523C626.307 468.917 626.977 469.114 627.773 469.114ZM640.057 473V455.545H644.898V473H640.057ZM642.489 453.295C641.769 453.295 641.152 453.057 640.636 452.58C640.129 452.095 639.875 451.515 639.875 450.841C639.875 450.174 640.129 449.602 640.636 449.125C641.152 448.64 641.769 448.398 642.489 448.398C643.208 448.398 643.822 448.64 644.33 449.125C644.845 449.602 645.102 450.174 645.102 450.841C645.102 451.515 644.845 452.095 644.33 452.58C643.822 453.057 643.208 453.295 642.489 453.295ZM656.273 473V449.727H665.591C667.303 449.727 668.731 449.981 669.875 450.489C671.019 450.996 671.879 451.701 672.455 452.602C673.03 453.496 673.318 454.527 673.318 455.693C673.318 456.602 673.136 457.402 672.773 458.091C672.409 458.773 671.909 459.333 671.273 459.773C670.644 460.205 669.924 460.511 669.114 460.693V460.92C670 460.958 670.83 461.208 671.602 461.67C672.383 462.133 673.015 462.78 673.5 463.614C673.985 464.439 674.227 465.424 674.227 466.568C674.227 467.803 673.92 468.905 673.307 469.875C672.701 470.837 671.803 471.598 670.614 472.159C669.424 472.72 667.958 473 666.216 473H656.273ZM661.193 468.977H665.205C666.576 468.977 667.576 468.716 668.205 468.193C668.833 467.663 669.148 466.958 669.148 466.08C669.148 465.436 668.992 464.867 668.682 464.375C668.371 463.883 667.928 463.496 667.352 463.216C666.784 462.936 666.106 462.795 665.318 462.795H661.193V468.977ZM661.193 459.466H664.841C665.515 459.466 666.114 459.348 666.636 459.114C667.167 458.871 667.583 458.53 667.886 458.091C668.197 457.652 668.352 457.125 668.352 456.511C668.352 455.67 668.053 454.992 667.455 454.477C666.864 453.962 666.023 453.705 664.932 453.705H661.193V459.466ZM682.179 449.727V473H677.338V449.727H682.179ZM693.943 473.341C692.178 473.341 690.652 472.966 689.364 472.216C688.083 471.458 687.095 470.405 686.398 469.057C685.701 467.701 685.352 466.129 685.352 464.341C685.352 462.538 685.701 460.962 686.398 459.614C687.095 458.258 688.083 457.205 689.364 456.455C690.652 455.697 692.178 455.318 693.943 455.318C695.708 455.318 697.231 455.697 698.511 456.455C699.799 457.205 700.792 458.258 701.489 459.614C702.186 460.962 702.534 462.538 702.534 464.341C702.534 466.129 702.186 467.701 701.489 469.057C700.792 470.405 699.799 471.458 698.511 472.216C697.231 472.966 695.708 473.341 693.943 473.341ZM693.966 469.591C694.769 469.591 695.439 469.364 695.977 468.909C696.515 468.447 696.92 467.818 697.193 467.023C697.473 466.227 697.614 465.322 697.614 464.307C697.614 463.292 697.473 462.386 697.193 461.591C696.92 460.795 696.515 460.167 695.977 459.705C695.439 459.242 694.769 459.011 693.966 459.011C693.155 459.011 692.473 459.242 691.92 459.705C691.375 460.167 690.962 460.795 690.682 461.591C690.409 462.386 690.273 463.292 690.273 464.307C690.273 465.322 690.409 466.227 690.682 467.023C690.962 467.818 691.375 468.447 691.92 468.909C692.473 469.364 693.155 469.591 693.966 469.591ZM713.545 479.909C711.977 479.909 710.633 479.693 709.511 479.261C708.398 478.837 707.511 478.258 706.852 477.523C706.193 476.788 705.765 475.962 705.568 475.045L710.045 474.443C710.182 474.792 710.398 475.117 710.693 475.42C710.989 475.723 711.379 475.966 711.864 476.148C712.356 476.337 712.955 476.432 713.659 476.432C714.712 476.432 715.58 476.174 716.261 475.659C716.951 475.152 717.295 474.299 717.295 473.102V469.909H717.091C716.879 470.394 716.561 470.852 716.136 471.284C715.712 471.716 715.167 472.068 714.5 472.341C713.833 472.614 713.038 472.75 712.114 472.75C710.803 472.75 709.61 472.447 708.534 471.841C707.466 471.227 706.614 470.292 705.977 469.034C705.348 467.769 705.034 466.17 705.034 464.239C705.034 462.261 705.356 460.61 706 459.284C706.644 457.958 707.5 456.966 708.568 456.307C709.644 455.648 710.822 455.318 712.102 455.318C713.08 455.318 713.898 455.485 714.557 455.818C715.216 456.144 715.746 456.553 716.148 457.045C716.557 457.53 716.871 458.008 717.091 458.477H717.273V455.545H722.08V473.17C722.08 474.655 721.716 475.898 720.989 476.898C720.261 477.898 719.254 478.648 717.966 479.148C716.686 479.655 715.212 479.909 713.545 479.909ZM713.648 469.114C714.428 469.114 715.087 468.92 715.625 468.534C716.17 468.14 716.587 467.58 716.875 466.852C717.17 466.117 717.318 465.239 717.318 464.216C717.318 463.193 717.174 462.307 716.886 461.557C716.598 460.799 716.182 460.212 715.636 459.795C715.091 459.379 714.428 459.17 713.648 459.17C712.852 459.17 712.182 459.386 711.636 459.818C711.091 460.242 710.678 460.833 710.398 461.591C710.117 462.348 709.977 463.223 709.977 464.216C709.977 465.223 710.117 466.095 710.398 466.83C710.686 467.557 711.098 468.121 711.636 468.523C712.182 468.917 712.852 469.114 713.648 469.114Z" fill="#E1E1E1"/>
<path d="M580.08 216.441C588.635 214.862 597.718 217.59 604.146 223.597C607.283 226.528 610.491 230.977 613.534 236.04C616.638 241.204 619.799 247.392 622.762 254.102C628.669 267.484 633.97 283.345 636.435 297.86C637.568 304.537 638.5 311.688 639.239 318.974C639.971 311.851 640.889 304.863 641.998 298.329C644.463 283.813 649.763 267.952 655.672 254.571C658.635 247.861 661.795 241.673 664.899 236.509C667.943 231.446 671.151 226.997 674.287 224.065L674.897 223.512C681.282 217.892 690.065 215.38 698.353 216.909C707.205 218.543 715.037 224.707 718.604 235.362C724.832 253.963 723.859 284.085 715.439 316.269C709.752 338.004 701.266 357.525 692.468 373.308C718.473 385.634 737.552 407.162 741 433H727.668C723.989 411.614 706.506 392.712 680.655 382.552L673.397 379.7L677.42 373.013C686.947 357.178 696.559 336.394 702.699 312.927C710.839 281.817 711.167 254.635 706.117 239.552C704.046 233.365 700.025 230.627 695.967 229.878C691.746 229.1 687.026 230.396 683.599 233.408L683.272 233.705C681.47 235.389 679.01 238.606 676.183 243.308C673.417 247.91 670.503 253.592 667.716 259.902C662.126 272.564 657.219 287.363 654.983 300.539C651.347 321.952 649.823 348.761 650.305 368.295L650.478 375.277L643.504 375.046C642.839 375.024 642.174 375.007 641.507 374.996L639.501 374.979C637.973 374.979 636.455 375.008 634.946 375.065L627.928 375.331L628.114 368.301C628.633 348.735 627.117 321.66 623.45 300.07C621.213 286.894 616.307 272.096 610.716 259.434C607.929 253.123 605.016 247.441 602.251 242.84C599.423 238.137 596.963 234.921 595.162 233.237C591.713 230.014 586.823 228.606 582.467 229.41C578.407 230.159 574.387 232.896 572.316 239.083C567.267 254.166 567.595 281.349 575.734 312.458C581.945 336.194 591.706 357.187 601.338 373.085L605.386 379.767L598.129 382.638C572.395 392.82 555.002 411.675 551.335 433H538C541.437 407.243 560.411 385.767 586.29 373.424C577.375 357.538 568.751 337.803 562.994 315.801C554.573 283.617 553.601 253.495 559.828 234.893C563.395 224.238 571.228 218.074 580.08 216.441Z" fill="#5ADCCD"/>
</svg>
