<svg width="1280" height="670" viewBox="0 0 1280 670" fill="none" xmlns="http://www.w3.org/2000/svg">
<rect width="1280" height="670" fill="#F0FFFA"/>
<path d="M389.491 290.727H407.943V347.403C407.943 353.767 406.423 359.335 403.384 364.108C400.372 368.881 396.153 372.602 390.727 375.273C385.301 377.915 378.98 379.236 371.764 379.236C364.52 379.236 358.185 377.915 352.759 375.273C347.332 372.602 343.114 368.881 340.102 364.108C337.091 359.335 335.585 353.767 335.585 347.403V290.727H354.037V345.827C354.037 349.151 354.761 352.105 356.21 354.69C357.688 357.276 359.761 359.307 362.432 360.784C365.102 362.261 368.213 363 371.764 363C375.344 363 378.455 362.261 381.097 360.784C383.767 359.307 385.827 357.276 387.276 354.69C388.753 352.105 389.491 349.151 389.491 345.827V290.727ZM477.244 331.21L460.624 332.233C460.34 330.812 459.729 329.534 458.792 328.398C457.854 327.233 456.619 326.31 455.085 325.628C453.579 324.918 451.775 324.562 449.673 324.562C446.86 324.562 444.488 325.159 442.556 326.352C440.624 327.517 439.658 329.08 439.658 331.04C439.658 332.602 440.283 333.923 441.533 335.003C442.783 336.082 444.928 336.949 447.968 337.602L459.815 339.989C466.178 341.295 470.923 343.398 474.048 346.295C477.173 349.193 478.735 353 478.735 357.716C478.735 362.006 477.471 365.77 474.942 369.009C472.442 372.247 469.005 374.776 464.63 376.594C460.283 378.384 455.269 379.278 449.587 379.278C440.923 379.278 434.019 377.474 428.877 373.866C423.763 370.23 420.766 365.287 419.886 359.037L437.741 358.099C438.281 360.741 439.587 362.759 441.661 364.151C443.735 365.514 446.391 366.196 449.63 366.196C452.812 366.196 455.369 365.585 457.3 364.364C459.261 363.114 460.255 361.509 460.283 359.548C460.255 357.901 459.559 356.551 458.195 355.5C456.832 354.42 454.729 353.597 451.888 353.028L440.553 350.77C434.161 349.491 429.403 347.276 426.278 344.122C423.181 340.969 421.633 336.949 421.633 332.062C421.633 327.858 422.769 324.236 425.042 321.196C427.343 318.156 430.567 315.812 434.715 314.165C438.891 312.517 443.778 311.693 449.374 311.693C457.641 311.693 464.147 313.44 468.891 316.935C473.664 320.429 476.448 325.187 477.244 331.21ZM508.831 379.236C504.655 379.236 500.933 378.511 497.666 377.062C494.399 375.585 491.814 373.412 489.911 370.543C488.036 367.645 487.098 364.037 487.098 359.719C487.098 356.082 487.766 353.028 489.101 350.557C490.436 348.085 492.254 346.097 494.555 344.591C496.857 343.085 499.47 341.949 502.396 341.182C505.351 340.415 508.447 339.875 511.686 339.562C515.493 339.165 518.561 338.795 520.891 338.455C523.22 338.085 524.911 337.545 525.962 336.835C527.013 336.125 527.538 335.074 527.538 333.682V333.426C527.538 330.727 526.686 328.639 524.982 327.162C523.305 325.685 520.919 324.946 517.822 324.946C514.555 324.946 511.956 325.67 510.024 327.119C508.092 328.54 506.814 330.33 506.189 332.489L489.399 331.125C490.251 327.148 491.928 323.71 494.428 320.812C496.928 317.886 500.152 315.642 504.101 314.08C508.078 312.489 512.68 311.693 517.908 311.693C521.544 311.693 525.024 312.119 528.348 312.972C531.7 313.824 534.669 315.145 537.254 316.935C539.868 318.724 541.928 321.026 543.433 323.838C544.939 326.622 545.692 329.96 545.692 333.852V378H528.476V368.923H527.964C526.913 370.969 525.507 372.773 523.746 374.335C521.984 375.869 519.868 377.077 517.396 377.957C514.925 378.81 512.07 379.236 508.831 379.236ZM514.03 366.707C516.7 366.707 519.058 366.182 521.104 365.131C523.149 364.051 524.754 362.602 525.919 360.784C527.084 358.966 527.666 356.906 527.666 354.605V347.659C527.098 348.028 526.317 348.369 525.322 348.682C524.357 348.966 523.263 349.236 522.041 349.491C520.82 349.719 519.598 349.932 518.376 350.131C517.155 350.301 516.047 350.457 515.053 350.599C512.922 350.912 511.061 351.409 509.47 352.091C507.879 352.773 506.643 353.696 505.763 354.861C504.882 355.997 504.442 357.418 504.442 359.122C504.442 361.594 505.337 363.483 507.126 364.79C508.945 366.068 511.246 366.707 514.03 366.707ZM589.264 403.909C583.384 403.909 578.341 403.099 574.136 401.48C569.96 399.889 566.636 397.716 564.165 394.96C561.693 392.205 560.088 389.108 559.349 385.67L576.139 383.412C576.651 384.719 577.46 385.94 578.568 387.077C579.676 388.213 581.139 389.122 582.957 389.804C584.804 390.514 587.048 390.869 589.69 390.869C593.639 390.869 596.892 389.903 599.449 387.972C602.034 386.068 603.327 382.872 603.327 378.384V366.409H602.56C601.764 368.227 600.571 369.946 598.98 371.565C597.389 373.185 595.344 374.506 592.844 375.528C590.344 376.551 587.361 377.062 583.895 377.062C578.98 377.062 574.506 375.926 570.472 373.653C566.466 371.352 563.27 367.844 560.884 363.128C558.526 358.384 557.347 352.389 557.347 345.145C557.347 337.73 558.554 331.537 560.969 326.565C563.384 321.594 566.594 317.872 570.599 315.401C574.634 312.929 579.051 311.693 583.852 311.693C587.517 311.693 590.585 312.318 593.057 313.568C595.528 314.79 597.517 316.324 599.023 318.17C600.557 319.989 601.736 321.778 602.56 323.54H603.241V312.545H621.267V378.639C621.267 384.207 619.903 388.866 617.176 392.616C614.449 396.366 610.67 399.179 605.841 401.054C601.04 402.957 595.514 403.909 589.264 403.909ZM589.648 363.426C592.574 363.426 595.045 362.702 597.062 361.253C599.108 359.776 600.67 357.673 601.75 354.946C602.858 352.19 603.412 348.895 603.412 345.06C603.412 341.224 602.872 337.901 601.793 335.088C600.713 332.247 599.151 330.045 597.105 328.483C595.06 326.92 592.574 326.139 589.648 326.139C586.665 326.139 584.151 326.949 582.105 328.568C580.06 330.159 578.511 332.375 577.46 335.216C576.409 338.057 575.884 341.338 575.884 345.06C575.884 348.838 576.409 352.105 577.46 354.861C578.54 357.588 580.088 359.705 582.105 361.21C584.151 362.687 586.665 363.426 589.648 363.426ZM635.713 378V312.545H653.866V378H635.713ZM644.832 304.108C642.134 304.108 639.818 303.213 637.886 301.423C635.983 299.605 635.031 297.432 635.031 294.903C635.031 292.403 635.983 290.259 637.886 288.469C639.818 286.651 642.134 285.741 644.832 285.741C647.531 285.741 649.832 286.651 651.736 288.469C653.668 290.259 654.634 292.403 654.634 294.903C654.634 297.432 653.668 299.605 651.736 301.423C649.832 303.213 647.531 304.108 644.832 304.108ZM696.523 378V290.727H731.466C737.886 290.727 743.241 291.679 747.531 293.582C751.821 295.486 755.045 298.128 757.205 301.509C759.364 304.861 760.443 308.724 760.443 313.099C760.443 316.509 759.761 319.506 758.398 322.091C757.034 324.648 755.159 326.75 752.773 328.398C750.415 330.017 747.716 331.168 744.676 331.849V332.702C748 332.844 751.111 333.781 754.009 335.514C756.935 337.247 759.307 339.676 761.125 342.801C762.943 345.898 763.852 349.591 763.852 353.881C763.852 358.511 762.702 362.645 760.401 366.281C758.128 369.889 754.761 372.744 750.301 374.847C745.841 376.949 740.344 378 733.81 378H696.523ZM714.974 362.915H730.017C735.159 362.915 738.909 361.935 741.267 359.974C743.625 357.986 744.804 355.344 744.804 352.048C744.804 349.634 744.222 347.503 743.057 345.656C741.892 343.81 740.23 342.361 738.071 341.31C735.94 340.259 733.398 339.733 730.443 339.733H714.974V362.915ZM714.974 327.247H728.653C731.182 327.247 733.426 326.807 735.386 325.926C737.375 325.017 738.938 323.739 740.074 322.091C741.239 320.443 741.821 318.469 741.821 316.168C741.821 313.014 740.699 310.472 738.455 308.54C736.239 306.608 733.085 305.642 728.994 305.642H714.974V327.247ZM793.671 290.727V378H775.518V290.727H793.671ZM837.787 379.278C831.168 379.278 825.443 377.872 820.614 375.06C815.813 372.219 812.105 368.27 809.491 363.213C806.878 358.128 805.571 352.233 805.571 345.528C805.571 338.767 806.878 332.858 809.491 327.801C812.105 322.716 815.813 318.767 820.614 315.955C825.443 313.114 831.168 311.693 837.787 311.693C844.406 311.693 850.116 313.114 854.918 315.955C859.747 318.767 863.469 322.716 866.082 327.801C868.696 332.858 870.003 338.767 870.003 345.528C870.003 352.233 868.696 358.128 866.082 363.213C863.469 368.27 859.747 372.219 854.918 375.06C850.116 377.872 844.406 379.278 837.787 379.278ZM837.872 365.216C840.884 365.216 843.398 364.364 845.415 362.659C847.432 360.926 848.952 358.568 849.974 355.585C851.026 352.602 851.551 349.207 851.551 345.401C851.551 341.594 851.026 338.199 849.974 335.216C848.952 332.233 847.432 329.875 845.415 328.142C843.398 326.409 840.884 325.543 837.872 325.543C834.832 325.543 832.276 326.409 830.202 328.142C828.156 329.875 826.608 332.233 825.557 335.216C824.534 338.199 824.023 341.594 824.023 345.401C824.023 349.207 824.534 352.602 825.557 355.585C826.608 358.568 828.156 360.926 830.202 362.659C832.276 364.364 834.832 365.216 837.872 365.216ZM911.295 403.909C905.415 403.909 900.372 403.099 896.168 401.48C891.991 399.889 888.668 397.716 886.196 394.96C883.724 392.205 882.119 389.108 881.381 385.67L898.17 383.412C898.682 384.719 899.491 385.94 900.599 387.077C901.707 388.213 903.17 389.122 904.989 389.804C906.835 390.514 909.08 390.869 911.722 390.869C915.67 390.869 918.923 389.903 921.48 387.972C924.065 386.068 925.358 382.872 925.358 378.384V366.409H924.591C923.795 368.227 922.602 369.946 921.011 371.565C919.42 373.185 917.375 374.506 914.875 375.528C912.375 376.551 909.392 377.062 905.926 377.062C901.011 377.062 896.537 375.926 892.503 373.653C888.497 371.352 885.301 367.844 882.915 363.128C880.557 358.384 879.378 352.389 879.378 345.145C879.378 337.73 880.585 331.537 883 326.565C885.415 321.594 888.625 317.872 892.631 315.401C896.665 312.929 901.082 311.693 905.884 311.693C909.548 311.693 912.616 312.318 915.088 313.568C917.56 314.79 919.548 316.324 921.054 318.17C922.588 319.989 923.767 321.778 924.591 323.54H925.273V312.545H943.298V378.639C943.298 384.207 941.935 388.866 939.207 392.616C936.48 396.366 932.702 399.179 927.872 401.054C923.071 402.957 917.545 403.909 911.295 403.909ZM911.679 363.426C914.605 363.426 917.077 362.702 919.094 361.253C921.139 359.776 922.702 357.673 923.781 354.946C924.889 352.19 925.443 348.895 925.443 345.06C925.443 341.224 924.903 337.901 923.824 335.088C922.744 332.247 921.182 330.045 919.136 328.483C917.091 326.92 914.605 326.139 911.679 326.139C908.696 326.139 906.182 326.949 904.136 328.568C902.091 330.159 900.543 332.375 899.491 335.216C898.44 338.057 897.915 341.338 897.915 345.06C897.915 348.838 898.44 352.105 899.491 354.861C900.571 357.588 902.119 359.705 904.136 361.21C906.182 362.687 908.696 363.426 911.679 363.426Z" fill="#E1E1E1"/>
</svg>
