<svg width="300" height="300" viewBox="0 0 300 300" fill="none" xmlns="http://www.w3.org/2000/svg">
<path d="M95.2002 53.8178C101.395 52.6762 108.085 54.6571 112.815 59.0717C115.175 61.2736 117.853 64.8982 120.605 69.4711C123.363 74.0518 126.211 79.6122 128.905 85.7065C134.293 97.8921 139.08 112.245 141.286 125.224C144.761 145.666 146.202 171.091 145.748 189.693C147.068 189.649 148.395 189.626 149.729 189.626C150.879 189.626 152.024 189.643 153.164 189.676C152.744 171.117 154.192 145.938 157.64 125.662C159.846 112.683 164.633 98.3294 170.021 86.144C172.715 80.0499 175.563 74.4901 178.32 69.9096C181.073 65.3367 183.751 61.7122 186.11 59.5102C190.84 55.0955 197.531 53.1148 203.726 54.2563C209.943 55.4021 215.629 59.6872 218.321 67.7191C223.637 83.5784 223.005 110.442 215.253 140.032C209.397 162.381 200.277 182.18 191.184 197.375C216.955 207.662 235.451 227.282 238.905 250.456H237.894C234.421 227.628 216.049 208.205 190.271 198.088C190.135 198.034 190.028 197.923 189.98 197.784C189.933 197.644 189.95 197.491 190.025 197.365C199.176 182.175 208.393 162.272 214.286 139.778C222.017 110.27 222.601 83.6299 217.374 68.0375C214.795 60.3442 209.399 56.3185 203.545 55.2397C197.669 54.1568 191.296 56.037 186.792 60.2406C184.534 62.348 181.914 65.8798 179.178 70.4252C176.446 74.9632 173.616 80.4853 170.935 86.5492C165.571 98.68 160.815 112.953 158.626 125.829C155.158 146.227 153.718 171.627 154.176 190.179C154.179 190.317 154.125 190.45 154.027 190.547C153.93 190.644 153.796 190.696 153.659 190.692C152.356 190.648 151.046 190.626 149.729 190.626C148.228 190.626 146.736 190.654 145.255 190.71C145.117 190.715 144.983 190.663 144.885 190.566C144.787 190.469 144.733 190.335 144.736 190.197C145.23 171.607 143.796 145.957 140.3 125.392C138.111 112.515 133.355 98.2418 127.991 86.1107C125.31 80.0468 122.479 74.5248 119.748 69.9867C117.012 65.4413 114.392 61.9094 112.134 59.8022C107.63 55.5986 101.257 53.7182 95.3809 54.8012C89.5271 55.8802 84.1308 59.906 81.5518 67.599C76.3251 83.1914 76.9088 109.832 84.6396 139.34C90.6007 162.093 99.9602 182.195 109.214 197.449C109.29 197.575 109.307 197.728 109.26 197.868C109.213 198.007 109.107 198.119 108.97 198.173C83.3056 208.314 65.0268 227.691 61.5635 250.456H60.5508C63.9953 227.347 82.3974 207.774 108.055 197.463C98.8569 182.2 89.5958 162.201 83.6729 139.594C75.9205 110.004 75.2882 83.1399 80.6045 67.2807C83.2972 59.249 88.9826 54.9637 95.2002 53.8178Z" fill="#4ED9C8"/>
<path d="M95.2002 53.8178L94.2035 48.4088L94.2033 48.4089L95.2002 53.8178ZM112.815 59.0717L116.568 55.0509L116.568 55.0508L112.815 59.0717ZM120.605 69.4711L125.318 66.6348L125.318 66.6348L120.605 69.4711ZM128.905 85.7065L133.936 83.4823L133.936 83.4823L128.905 85.7065ZM141.286 125.224L146.708 124.302L146.708 124.302L141.286 125.224ZM145.748 189.693L140.25 189.559C140.213 191.072 140.801 192.533 141.876 193.599C142.951 194.665 144.418 195.24 145.931 195.19L145.748 189.693ZM149.729 189.626V184.126H149.729L149.729 189.626ZM153.164 189.676L153.006 195.174C154.513 195.217 155.972 194.64 157.041 193.577C158.111 192.514 158.697 191.059 158.663 189.552L153.164 189.676ZM157.64 125.662L152.217 124.74L152.217 124.74L157.64 125.662ZM170.021 86.144L164.99 83.9198L164.99 83.9198L170.021 86.144ZM178.32 69.9096L173.608 67.0733L173.608 67.0733L178.32 69.9096ZM186.11 59.5102L182.358 55.4893L182.358 55.4894L186.11 59.5102ZM203.726 54.2563L204.722 48.8473L204.722 48.8473L203.726 54.2563ZM218.321 67.7191L223.536 65.9711L223.536 65.9709L218.321 67.7191ZM215.253 140.032L220.573 141.426V141.426L215.253 140.032ZM191.184 197.375L186.464 194.551C185.637 195.934 185.457 197.61 185.973 199.136C186.489 200.663 187.648 201.886 189.145 202.483L191.184 197.375ZM238.905 250.456V255.956C240.505 255.956 242.026 255.26 243.071 254.047C244.116 252.835 244.581 251.228 244.345 249.646L238.905 250.456ZM237.894 250.456L232.456 251.284C232.865 253.971 235.175 255.956 237.894 255.956V250.456ZM190.271 198.088L188.258 203.206L188.262 203.208L190.271 198.088ZM189.98 197.784L184.772 199.549L184.774 199.555L189.98 197.784ZM190.025 197.365L185.314 194.526L185.312 194.53L190.025 197.365ZM214.286 139.778L219.607 141.172V141.172L214.286 139.778ZM217.374 68.0375L222.589 66.2895L222.589 66.2894L217.374 68.0375ZM203.545 55.2397L204.542 49.8307L204.542 49.8307L203.545 55.2397ZM186.792 60.2406L183.039 56.2198L183.039 56.2199L186.792 60.2406ZM179.178 70.4252L174.465 67.5889L174.465 67.5889L179.178 70.4252ZM170.935 86.5492L165.904 84.3251L165.904 84.3251L170.935 86.5492ZM158.626 125.829L153.204 124.908L153.204 124.908L158.626 125.829ZM154.176 190.179L159.674 190.043L159.674 190.043L154.176 190.179ZM154.027 190.547L157.894 194.459L157.9 194.453L154.027 190.547ZM153.659 190.692L153.476 196.189H153.477L153.659 190.692ZM149.729 190.626V185.126H149.729L149.729 190.626ZM145.255 190.71L145.455 196.207L145.463 196.206L145.255 190.71ZM144.885 190.566L141.014 194.474L141.018 194.477L144.885 190.566ZM144.736 190.197L150.234 190.343V190.343L144.736 190.197ZM140.3 125.392L145.722 124.47L145.722 124.47L140.3 125.392ZM127.991 86.1107L133.021 83.8866L133.021 83.8866L127.991 86.1107ZM119.748 69.9867L124.46 67.1504L124.46 67.1504L119.748 69.9867ZM112.134 59.8022L115.887 55.7814L115.886 55.7813L112.134 59.8022ZM95.3809 54.8012L94.384 49.3923L94.3839 49.3923L95.3809 54.8012ZM81.5518 67.599L76.337 65.8508L76.3369 65.851L81.5518 67.599ZM84.6396 139.34L79.3192 140.734L79.3192 140.734L84.6396 139.34ZM109.214 197.449L104.512 200.301L104.512 200.301L109.214 197.449ZM109.26 197.868L114.473 199.622L114.473 199.619L109.26 197.868ZM108.97 198.173L106.949 193.058L106.949 193.058L108.97 198.173ZM61.5635 250.456V255.956C64.2816 255.956 66.5921 253.971 67.0009 251.284L61.5635 250.456ZM60.5508 250.456L55.1109 249.646C54.875 251.228 55.3401 252.835 56.3849 254.047C57.4297 255.26 58.9506 255.956 60.5508 255.956V250.456ZM108.055 197.463L110.105 202.567C111.601 201.966 112.758 200.739 113.27 199.21C113.782 197.681 113.597 196.005 112.765 194.625L108.055 197.463ZM83.6729 139.594L78.3524 140.988L78.3524 140.988L83.6729 139.594ZM80.6045 67.2807L75.3897 65.5324L75.3897 65.5326L80.6045 67.2807ZM95.2002 53.8178L96.1969 59.2267C100.638 58.4083 105.577 59.8389 109.063 63.0926L112.815 59.0717L116.568 55.0508C110.594 49.4754 102.152 46.9441 94.2035 48.4088L95.2002 53.8178ZM112.815 59.0717L109.063 63.0925C110.865 64.7743 113.232 67.8853 115.893 72.3074L120.605 69.4711L125.318 66.6348C122.475 61.9112 119.485 57.7729 116.568 55.0509L112.815 59.0717ZM120.605 69.4711L115.893 72.3074C118.509 76.6533 121.254 82.0025 123.875 87.9306L128.905 85.7065L133.936 83.4823C131.167 77.2218 128.216 71.4502 125.318 66.6348L120.605 69.4711ZM128.905 85.7065L123.875 87.9306C129.13 99.8162 133.752 113.726 135.864 126.146L141.286 125.224L146.708 124.302C144.407 110.765 139.456 95.968 133.936 83.4823L128.905 85.7065ZM141.286 125.224L135.864 126.146C139.272 146.194 140.696 171.262 140.25 189.559L145.748 189.693L151.246 189.827C151.708 170.921 150.251 145.138 146.708 124.302L141.286 125.224ZM145.748 189.693L145.931 195.19C147.191 195.148 148.457 195.126 149.729 195.126L149.729 189.626L149.729 184.126C148.333 184.126 146.945 184.15 145.565 184.196L145.748 189.693ZM149.729 189.626V195.126C150.825 195.126 151.917 195.143 153.006 195.174L153.164 189.676L153.322 184.178C152.131 184.144 150.933 184.126 149.729 184.126V189.626ZM153.164 189.676L158.663 189.552C158.25 171.293 159.681 146.468 163.062 126.583L157.64 125.662L152.217 124.74C148.704 145.408 147.239 170.941 147.665 189.801L153.164 189.676ZM157.64 125.662L163.062 126.583C165.173 114.163 169.796 100.253 175.051 88.3681L170.021 86.144L164.99 83.9198C159.47 96.4053 154.519 111.203 152.217 124.74L157.64 125.662ZM170.021 86.144L175.051 88.3681C177.672 82.4405 180.417 77.0918 183.033 72.7459L178.32 69.9096L173.608 67.0733C170.71 71.8884 167.758 77.6593 164.99 83.9198L170.021 86.144ZM178.32 69.9096L183.033 72.7459C185.694 68.3238 188.061 65.2128 189.863 63.5309L186.11 59.5102L182.358 55.4894C179.441 58.2115 176.451 62.3497 173.608 67.0733L178.32 69.9096ZM186.11 59.5102L189.863 63.531C193.349 60.2774 198.287 58.8468 202.729 59.6652L203.726 54.2563L204.722 48.8473C196.774 47.3829 188.332 49.9136 182.358 55.4893L186.11 59.5102ZM203.726 54.2563L202.729 59.6652C206.945 60.4422 211.038 63.2986 213.107 69.4674L218.321 67.7191L223.536 65.9709C220.219 56.0758 212.941 50.362 204.722 48.8473L203.726 54.2563ZM218.321 67.7191L213.106 69.4672C217.931 83.8589 217.567 109.496 209.932 138.638L215.253 140.032L220.573 141.426C228.443 111.387 229.344 83.298 223.536 65.9711L218.321 67.7191ZM215.253 140.032L209.932 138.638C204.224 160.425 195.325 179.745 186.464 194.551L191.184 197.375L195.903 200.2C205.23 184.614 214.571 164.337 220.573 141.426L215.253 140.032ZM191.184 197.375L189.145 202.483C213.675 212.275 230.381 230.572 233.465 251.267L238.905 250.456L244.345 249.646C240.521 223.991 220.235 203.049 193.223 192.267L191.184 197.375ZM238.905 250.456V244.956H237.894V250.456V255.956H238.905V250.456ZM237.894 250.456L243.331 249.629C239.48 224.315 219.305 203.575 192.281 192.968L190.271 198.088L188.262 203.208C212.792 212.836 229.361 230.941 232.456 251.284L237.894 250.456ZM190.271 198.088L192.285 192.97C193.648 193.506 194.712 194.615 195.187 196.012L189.98 197.784L184.774 199.555C185.344 201.23 186.622 202.563 188.258 203.206L190.271 198.088ZM189.98 197.784L195.189 196.018C195.659 197.405 195.5 198.934 194.739 200.199L190.025 197.365L185.312 194.53C184.4 196.047 184.207 197.884 184.772 199.549L189.98 197.784ZM190.025 197.365L194.737 200.203C204.124 184.62 213.564 164.234 219.607 141.172L214.286 139.778L208.966 138.384C203.221 160.311 194.228 179.731 185.314 194.526L190.025 197.365ZM214.286 139.778L219.607 141.172C227.455 111.215 228.307 83.3495 222.589 66.2895L217.374 68.0375L212.159 69.7855C216.894 83.9103 216.579 109.324 208.966 138.384L214.286 139.778ZM217.374 68.0375L222.589 66.2894C219.385 56.7326 212.397 51.2784 204.542 49.8307L203.545 55.2397L202.548 60.6486C206.401 61.3586 210.205 63.9558 212.159 69.7856L217.374 68.0375ZM203.545 55.2397L204.542 49.8307C196.913 48.4249 188.788 50.8546 183.039 56.2198L186.792 60.2406L190.545 64.2614C193.804 61.2194 198.425 59.8887 202.548 60.6486L203.545 55.2397ZM186.792 60.2406L183.039 56.2199C180.223 58.848 177.291 62.8943 174.465 67.5889L179.178 70.4252L183.89 73.2615C186.536 68.8653 188.845 65.8479 190.545 64.2614L186.792 60.2406ZM179.178 70.4252L174.465 67.5889C171.593 72.3612 168.659 78.0943 165.904 84.3251L170.935 86.5492L175.965 88.7734C178.572 82.8762 181.3 77.5653 183.89 73.2615L179.178 70.4252ZM170.935 86.5492L165.904 84.3251C160.408 96.7561 155.488 111.472 153.204 124.908L158.626 125.829L164.048 126.751C166.142 114.433 170.734 100.604 175.965 88.7734L170.935 86.5492ZM158.626 125.829L153.204 124.908C149.669 145.699 148.212 171.457 148.677 190.315L154.176 190.179L159.674 190.043C159.223 171.797 160.647 146.756 164.048 126.751L158.626 125.829ZM154.176 190.179L148.677 190.315C148.643 188.93 149.184 187.604 150.155 186.642L154.027 190.547L157.9 194.453C159.066 193.296 159.715 191.703 159.674 190.043L154.176 190.179ZM154.027 190.547L150.161 186.636C151.13 185.677 152.459 185.149 153.842 185.195L153.659 190.692L153.477 196.189C155.134 196.244 156.729 195.61 157.894 194.459L154.027 190.547ZM153.659 190.692L153.842 185.195C152.479 185.15 151.107 185.126 149.729 185.126V190.626V196.126C150.984 196.126 152.234 196.147 153.476 196.189L153.659 190.692ZM149.729 190.626L149.729 185.126C148.16 185.126 146.599 185.156 145.047 185.214L145.255 190.71L145.463 196.206C146.874 196.153 148.296 196.126 149.729 196.126L149.729 190.626ZM145.255 190.71L145.055 185.214C146.44 185.164 147.776 185.69 148.752 186.655L144.885 190.566L141.018 194.477C142.19 195.636 143.794 196.267 145.455 196.207L145.255 190.71ZM144.885 190.566L148.755 186.658C149.732 187.625 150.271 188.957 150.234 190.343L144.736 190.197L139.238 190.051C139.194 191.713 139.842 193.312 141.014 194.474L144.885 190.566ZM144.736 190.197L150.234 190.343C150.736 171.442 149.286 145.431 145.722 124.47L140.3 125.392L134.878 126.314C138.307 146.483 139.723 171.772 139.238 190.051L144.736 190.197ZM140.3 125.392L145.722 124.47C143.438 111.035 138.518 96.318 133.021 83.8866L127.991 86.1107L122.961 88.3349C128.192 100.166 132.783 113.995 134.878 126.314L140.3 125.392ZM127.991 86.1107L133.021 83.8866C130.266 77.6558 127.333 71.9227 124.46 67.1504L119.748 69.9867L115.036 72.823C117.626 77.1268 120.354 82.4378 122.961 88.3349L127.991 86.1107ZM119.748 69.9867L124.46 67.1504C121.635 62.4558 118.702 58.4094 115.887 55.7814L112.134 59.8022L108.381 63.823C110.081 65.4094 112.39 68.4268 115.036 72.823L119.748 69.9867ZM112.134 59.8022L115.886 55.7813C110.138 50.4164 102.013 47.9862 94.384 49.3923L95.3809 54.8012L96.3777 60.2101C100.501 59.4502 105.122 60.7809 108.381 63.823L112.134 59.8022ZM95.3809 54.8012L94.3839 49.3923C86.5292 50.8401 79.5407 56.2943 76.337 65.8508L81.5518 67.599L86.7665 69.3472C88.7208 63.5176 92.525 60.9202 96.3778 60.2101L95.3809 54.8012ZM81.5518 67.599L76.3369 65.851C70.6183 82.911 71.4708 110.777 79.3192 140.734L84.6396 139.34L89.9601 137.946C82.3467 108.886 82.0319 83.4718 86.7666 69.3471L81.5518 67.599ZM84.6396 139.34L79.3192 140.734C85.4305 164.06 95.0165 184.65 104.512 200.301L109.214 197.449L113.916 194.596C104.904 179.74 95.7709 160.126 89.9601 137.946L84.6396 139.34ZM109.214 197.449L104.512 200.301C103.739 199.028 103.583 197.495 104.046 196.116L109.26 197.868L114.473 199.619C115.03 197.961 114.842 196.121 113.916 194.596L109.214 197.449ZM109.26 197.868L104.047 196.113C104.515 194.722 105.574 193.601 106.949 193.058L108.97 198.173L110.991 203.289C112.639 202.637 113.91 201.293 114.473 199.622L109.26 197.868ZM108.97 198.173L106.949 193.058C80.0402 203.69 59.9665 224.385 56.126 249.629L61.5635 250.456L67.0009 251.284C70.0872 230.997 86.5709 212.937 110.991 203.288L108.97 198.173ZM61.5635 250.456V244.956H60.5508V250.456V255.956H61.5635V250.456ZM60.5508 250.456L65.9907 251.267C69.0666 230.631 85.6864 212.379 110.105 202.567L108.055 197.463L106.004 192.36C79.1085 203.168 58.9239 224.064 55.1109 249.646L60.5508 250.456ZM108.055 197.463L112.765 194.625C103.805 179.755 94.7675 160.24 88.9933 138.2L83.6729 139.594L78.3524 140.988C84.4241 164.163 93.9086 184.644 103.344 200.302L108.055 197.463ZM83.6729 139.594L88.9933 138.2C81.3584 109.059 80.995 83.4204 85.8193 69.0288L80.6045 67.2807L75.3897 65.5326C69.5814 82.8595 70.4825 110.949 78.3524 140.988L83.6729 139.594ZM80.6045 67.2807L85.8192 69.0289C87.8873 62.8604 91.9807 60.0038 96.1971 59.2267L95.2002 53.8178L94.2033 48.4089C85.9845 49.9237 78.707 55.6375 75.3897 65.5324L80.6045 67.2807Z" fill="#4ED9C8"/>
</svg>
